# Made in Blockbench 5.1.6
mtllib joe.mtl

o cube
v -0.24999999999999994 0.6875000000000001 0.5
v -0.24999999999999994 0.6875000000000001 0.490625
v 0.25000000000000006 0.6875 0.5
v 0.25000000000000006 0.6875 0.490625
v -0.2500000000000001 1.1102230246251565e-16 0.490625
v -0.2500000000000001 1.1102230246251565e-16 0.5
v 0.24999999999999992 0 0.490625
v 0.24999999999999992 0 0.5
vt 0.0029296875 0.986328125
vt 0.3291015625 0.986328125
vt 0.3291015625 0.7607421875
vt 0.0029296875 0.7607421875
vt 0.2177734375 0.58984375
vt 0.498046875 0.58984375
vt 0.498046875 0.3447265625
vt 0.2177734375 0.3447265625
vt 0.5732421875 0.8134765625
vt 1 0.8134765625
vt 1 0.1884765625
vt 0.5732421875 0.1884765625
vt 0.1923828125 0.3955078125
vt 0.3466796875 0.3955078125
vt 0.3466796875 0.0556640625
vt 0.1923828125 0.0556640625
vt 0.17578125 0.4375
vt 0.0087890625 0.4375
vt 0.0087890625 0.572265625
vt 0.17578125 0.572265625
vt 0.638671875 0.8837890625
vt 0.6279296875 0.8837890625
vt 0.6279296875 0.8828125
vt 0.638671875 0.8828125
vn 0 0 -1
vn 2.220446049250313e-16 1 0
vn 0 0 1
vn -2.220446049250313e-16 -1 0
vn -1 2.220446049250313e-16 0
vn 1 -2.220446049250313e-16 0
usemtl m_818df421-2724-faea-7d9d-ecfe52b9ba8b
f 4/4/1 7/3/1 5/2/1 2/1/1
f 3/8/2 4/7/2 2/6/2 1/5/2
f 8/12/3 3/11/3 1/10/3 6/9/3
f 7/16/4 8/15/4 6/14/4 5/13/4
f 6/20/5 1/19/5 2/18/5 5/17/5
f 7/24/6 4/23/6 3/22/6 8/21/6