# Made in Blockbench 5.1.6
mtllib joe - Converted.mtl

o cube
v -0.24999999999999994 0.6875000000000001 0.5
v -0.24999999999999994 0.6875000000000001 0.4906250000000001
v 0.25000000000000006 0.6875 0.5
v 0.25000000000000006 0.6875 0.4906250000000001
v -0.2500000000000001 1.1102230246251565e-16 0.4906250000000001
v -0.2500000000000001 1.1102230246251565e-16 0.5
v 0.24999999999999992 0 0.4906250000000001
v 0.24999999999999992 0 0.5
vt 0.00293 0.986328125
vt 0.329101875 0.986328125
vt 0.329101875 0.760741875
vt 0.00293 0.760741875
vt 0.21777375 0.58984375
vt 0.498046875 0.58984375
vt 0.498046875 0.34472625
vt 0.21777375 0.34472625
vt 0.5732425 0.81347625
vt 1 0.81347625
vt 1 0.18847625
vt 0.5732425 0.18847625
vt 0.192383125 0.3955075
vt 0.34668 0.3955075
vt 0.34668 0.05566375000000001
vt 0.192383125 0.05566375000000001
vt 0.17578125 0.4375
vt 0.008789375 0.4375
vt 0.008789375 0.572265625
vt 0.17578125 0.572265625
vt 0.638671875 0.88378875
vt 0.62793 0.88378875
vt 0.62793 0.8828125
vt 0.638671875 0.8828125
vn 0 0 -1
vn 2.220446049250313e-16 1 0
vn 0 0 1
vn -2.220446049250313e-16 -1 0
vn -1 2.220446049250313e-16 0
vn 1 -2.220446049250313e-16 0
usemtl m_bfc858a9-e547-63d0-6bbb-e6d036954bdd
f 4/4/1 7/3/1 5/2/1 2/1/1
f 3/8/2 4/7/2 2/6/2 1/5/2
f 8/12/3 3/11/3 1/10/3 6/9/3
f 7/16/4 8/15/4 6/14/4 5/13/4
f 6/20/5 1/19/5 2/18/5 5/17/5
f 7/24/6 4/23/6 3/22/6 8/21/6