# Made in Blockbench 5.1.3
mtllib salvation.geo - Converted.mtl

o bone
v 0.258125 0.5165722590017441 -1.3706015052698035
v 0.258125 0.4981354343506618 -1.5106430919388545
v 0.258125 -0.04359408767445878 -1.2968542066654742
v 0.258125 -0.0620309123255411 -1.4368957933345254
v 0.116875 0.4981354343506618 -1.5106430919388545
v 0.116875 0.5165722590017441 -1.3706015052698035
v 0.116875 -0.0620309123255411 -1.4368957933345254
v 0.116875 -0.04359408767445878 -1.2968542066654742
vt 0.25 0.734375
vt 0.28125 0.734375
vt 0.28125 0.59375
vt 0.25 0.59375
vt 0.21875 0.734375
vt 0.25 0.734375
vt 0.25 0.59375
vt 0.21875 0.59375
vt 0.3125 0.734375
vt 0.34375 0.734375
vt 0.34375 0.59375
vt 0.3125 0.59375
vt 0.28125 0.734375
vt 0.3125 0.734375
vt 0.3125 0.59375
vt 0.28125 0.59375
vt 0.28125 0.734375
vt 0.25 0.734375
vt 0.25 0.765625
vt 0.28125 0.765625
vt 0.3125 0.765625
vt 0.28125 0.765625
vt 0.28125 0.734375
vt 0.3125 0.734375
vn 0 -0.13052619222005157 -0.9914448613738104
vn 1 0 0
vn 0 0.13052619222005157 0.9914448613738104
vn -1 0 0
vn 0 0.9914448613738104 -0.13052619222005157
vn 0 -0.9914448613738104 0.13052619222005157
usemtl m_0206a71a-6b3a-5ba3-dbee-fb72e67b808f
f 4/4/1 7/3/1 5/2/1 2/1/1
f 3/8/2 4/7/2 2/6/2 1/5/2
f 8/12/3 3/11/3 1/10/3 6/9/3
f 7/16/4 8/15/4 6/14/4 5/13/4
f 6/20/5 1/19/5 2/18/5 5/17/5
f 7/24/6 4/23/6 3/22/6 8/21/6
o bone
v 0.19299190705573735 0.9056139656672186 -1.366875
v 0.19299190705573735 0.9056139656672186 -1.508125
v 0.2575207933345254 0.41546841232554116 -1.366875
v 0.2575207933345254 0.41546841232554116 -1.508125
v 0.05295032038668665 0.8871771410161364 -1.508125
v 0.05295032038668665 0.8871771410161364 -1.366875
v 0.11747920666547465 0.39703158767445884 -1.508125
v 0.11747920666547465 0.39703158767445884 -1.366875
vt 0.21875 0.5625
vt 0.25 0.5625
vt 0.25 0.453125
vt 0.21875 0.453125
vt 0.1875 0.5625
vt 0.21875 0.5625
vt 0.21875 0.453125
vt 0.1875 0.453125
vt 0.28125 0.5625
vt 0.3125 0.5625
vt 0.3125 0.453125
vt 0.28125 0.453125
vt 0.25 0.5625
vt 0.28125 0.5625
vt 0.28125 0.453125
vt 0.25 0.453125
vt 0.25 0.5625
vt 0.21875 0.5625
vt 0.21875 0.59375
vt 0.25 0.59375
vt 0.28125 0.59375
vt 0.25 0.59375
vt 0.25 0.5625
vt 0.28125 0.5625
vn 0 0 -1
vn 0.9914448613738104 0.13052619222005157 0
vn 0 0 1
vn -0.9914448613738104 -0.13052619222005157 0
vn -0.13052619222005157 0.9914448613738104 0
vn 0.13052619222005157 -0.9914448613738104 0
usemtl m_0206a71a-6b3a-5ba3-dbee-fb72e67b808f
f 12/28/7 15/27/7 13/26/7 10/25/7
f 11/32/8 12/31/8 10/30/8 9/29/8
f 16/36/9 11/35/9 9/34/9 14/33/9
f 15/40/10 16/39/10 14/38/10 13/37/10
f 14/44/11 9/43/11 10/42/11 13/41/11
f 15/48/12 12/47/12 11/46/12 16/45/12
o bone2
v -0.16562500000000002 0.5165722590017441 -1.3706015052698035
v -0.16562500000000002 0.4981354343506618 -1.5106430919388545
v -0.16562500000000002 -0.04359408767445878 -1.2968542066654742
v -0.16562500000000002 -0.0620309123255411 -1.4368957933345254
v -0.306875 0.4981354343506618 -1.5106430919388545
v -0.306875 0.5165722590017441 -1.3706015052698035
v -0.306875 -0.0620309123255411 -1.4368957933345254
v -0.306875 -0.04359408767445878 -1.2968542066654742
vt 0.28125 0.96875
vt 0.3125 0.96875
vt 0.3125 0.828125
vt 0.28125 0.828125
vt 0.25 0.96875
vt 0.28125 0.96875
vt 0.28125 0.828125
vt 0.25 0.828125
vt 0.34375 0.96875
vt 0.375 0.96875
vt 0.375 0.828125
vt 0.34375 0.828125
vt 0.3125 0.96875
vt 0.34375 0.96875
vt 0.34375 0.828125
vt 0.3125 0.828125
vt 0.3125 0.96875
vt 0.28125 0.96875
vt 0.28125 1
vt 0.3125 1
vt 0.34375 1
vt 0.3125 1
vt 0.3125 0.96875
vt 0.34375 0.96875
vn 0 -0.13052619222005157 -0.9914448613738104
vn 1 0 0
vn 0 0.13052619222005157 0.9914448613738104
vn -1 0 0
vn 0 0.9914448613738104 -0.13052619222005157
vn 0 -0.9914448613738104 0.13052619222005157
usemtl m_0206a71a-6b3a-5ba3-dbee-fb72e67b808f
f 20/52/13 23/51/13 21/50/13 18/49/13
f 19/56/14 20/55/14 18/54/14 17/53/14
f 24/60/15 19/59/15 17/58/15 22/57/15
f 23/64/16 24/63/16 22/62/16 21/61/16
f 22/68/17 17/67/17 18/66/17 21/65/17
f 23/72/18 20/71/18 19/70/18 24/69/18
o bone2
v -0.10590227139441188 0.8883329813396901 -1.366875
v -0.10590227139441188 0.8883329813396901 -1.508125
v -0.16615142804033167 0.39764297762201145 -1.366875
v -0.16615142804033167 0.39764297762201145 -1.508125
v -0.2460994153137486 0.9055470260956671 -1.508125
v -0.2460994153137486 0.9055470260956671 -1.366875
v -0.30634857195966836 0.41485702237798855 -1.508125
v -0.30634857195966836 0.41485702237798855 -1.366875
vt 0.03125 0.53125
vt 0.0625 0.53125
vt 0.0625 0.421875
vt 0.03125 0.421875
vt 0 0.53125
vt 0.03125 0.53125
vt 0.03125 0.421875
vt 0 0.421875
vt 0.09375 0.53125
vt 0.125 0.53125
vt 0.125 0.421875
vt 0.09375 0.421875
vt 0.0625 0.53125
vt 0.09375 0.53125
vt 0.09375 0.421875
vt 0.0625 0.421875
vt 0.0625 0.53125
vt 0.03125 0.53125
vt 0.03125 0.5625
vt 0.0625 0.5625
vt 0.09375 0.5625
vt 0.0625 0.5625
vt 0.0625 0.53125
vt 0.09375 0.53125
vn 0 0 -1
vn 0.992546151641322 -0.12186934340514746 0
vn 0 0 1
vn -0.992546151641322 0.12186934340514746 0
vn 0.12186934340514746 0.992546151641322 0
vn -0.12186934340514746 -0.992546151641322 0
usemtl m_0206a71a-6b3a-5ba3-dbee-fb72e67b808f
f 28/76/19 31/75/19 29/74/19 26/73/19
f 27/80/20 28/79/20 26/78/20 25/77/20
f 32/84/21 27/83/21 25/82/21 30/81/21
f 31/88/22 32/87/22 30/86/22 29/85/22
f 30/92/23 25/91/23 26/90/23 29/89/23
f 31/96/24 28/95/24 27/94/24 32/93/24
o bone5
v 0.18749999999999997 1.6421875 -1.34921875
v 0.18749999999999997 1.6421875 -1.5007812499999997
v 0.18749999999999997 1.1696874999999998 -1.34921875
v 0.18749999999999997 1.1696874999999998 -1.5007812499999997
v -0.23625 1.6421875 -1.5007812499999997
v -0.23625 1.6421875 -1.34921875
v -0.23625 1.1696874999999998 -1.5007812499999997
v -0.23625 1.1696874999999998 -1.34921875
vt 0.03125 0.96875
vt 0.125 0.96875
vt 0.125 0.859375
vt 0.03125 0.859375
vt 0 0.96875
vt 0.03125 0.96875
vt 0.03125 0.859375
vt 0 0.859375
vt 0.15625 0.96875
vt 0.25 0.96875
vt 0.25 0.859375
vt 0.15625 0.859375
vt 0.125 0.96875
vt 0.15625 0.96875
vt 0.15625 0.859375
vt 0.125 0.859375
vt 0.125 0.96875
vt 0.03125 0.96875
vt 0.03125 1
vt 0.125 1
vt 0.21875 1
vt 0.125 1
vt 0.125 0.96875
vt 0.21875 0.96875
vn 0 0 -1
vn 1 0 0
vn 0 0 1
vn -1 0 0
vn 0 1 0
vn 0 -1 0
usemtl m_0206a71a-6b3a-5ba3-dbee-fb72e67b808f
f 36/100/25 39/99/25 37/98/25 34/97/25
f 35/104/26 36/103/26 34/102/26 33/101/26
f 40/108/27 35/107/27 33/106/27 38/105/27
f 39/112/28 40/111/28 38/110/28 37/109/28
f 38/116/29 33/115/29 34/114/29 37/113/29
f 39/120/30 36/119/30 35/118/30 40/117/30
o bone5
v 0.15624999999999997 1.1734375 -1.36484375
v 0.15624999999999997 1.1734375 -1.51015625
v 0.15624999999999997 0.8884374999999998 -1.36484375
v 0.15624999999999997 0.8884374999999998 -1.51015625
v -0.205 1.1734375 -1.51015625
v -0.205 1.1734375 -1.36484375
v -0.205 0.8884374999999998 -1.51015625
v -0.205 0.8884374999999998 -1.36484375
vt 0.03125 0.734375
vt 0.109375 0.734375
vt 0.109375 0.671875
vt 0.03125 0.671875
vt 0 0.734375
vt 0.03125 0.734375
vt 0.03125 0.671875
vt 0 0.671875
vt 0.140625 0.734375
vt 0.21875 0.734375
vt 0.21875 0.671875
vt 0.140625 0.671875
vt 0.109375 0.734375
vt 0.140625 0.734375
vt 0.140625 0.671875
vt 0.109375 0.671875
vt 0.109375 0.734375
vt 0.03125 0.734375
vt 0.03125 0.765625
vt 0.109375 0.765625
vt 0.1875 0.765625
vt 0.109375 0.765625
vt 0.109375 0.734375
vt 0.1875 0.734375
vn 0 0 -1
vn 1 0 0
vn 0 0 1
vn -1 0 0
vn 0 1 0
vn 0 -1 0
usemtl m_0206a71a-6b3a-5ba3-dbee-fb72e67b808f
f 44/124/31 47/123/31 45/122/31 42/121/31
f 43/128/32 44/127/32 42/126/32 41/125/32
f 48/132/33 43/131/33 41/130/33 46/129/33
f 47/136/34 48/135/34 46/134/34 45/133/34
f 46/140/35 41/139/35 42/138/35 45/137/35
f 47/144/36 44/143/36 43/142/36 48/141/36
o bone5
v -0.03132021260025741 1.6109375 -1.4741682238748748
v -0.07033188519834155 1.6109375 -1.5813519134332676
v -0.03132021260025741 1.1696874999999998 -1.4741682238748748
v -0.07033188519834155 1.1696874999999998 -1.5813519134332676
v -0.24828617525967295 1.6109375 -1.5165818487909692
v -0.2092745026615888 1.6109375 -1.4093981592325764
v -0.24828617525967295 1.1696874999999998 -1.5165818487909692
v -0.2092745026615888 1.1696874999999998 -1.4093981592325764
vt 0.453125 0.53125
vt 0.5 0.53125
vt 0.5 0.421875
vt 0.453125 0.421875
vt 0.4375 0.53125
vt 0.453125 0.53125
vt 0.453125 0.421875
vt 0.4375 0.421875
vt 0.515625 0.53125
vt 0.5625 0.53125
vt 0.5625 0.421875
vt 0.515625 0.421875
vt 0.5 0.53125
vt 0.515625 0.53125
vt 0.515625 0.421875
vt 0.5 0.421875
vt 0.5 0.53125
vt 0.453125 0.53125
vt 0.453125 0.546875
vt 0.5 0.546875
vt 0.546875 0.546875
vt 0.5 0.546875
vt 0.5 0.53125
vt 0.546875 0.53125
vn -0.34202014332566866 0 -0.9396926207859084
vn 0.9396926207859084 0 -0.34202014332566866
vn 0.34202014332566866 0 0.9396926207859084
vn -0.9396926207859084 0 0.34202014332566866
vn 0 1 0
vn 0 -1 0
usemtl m_0206a71a-6b3a-5ba3-dbee-fb72e67b808f
f 52/148/37 55/147/37 53/146/37 50/145/37
f 51/152/38 52/151/38 50/150/38 49/149/38
f 56/156/39 51/155/39 49/154/39 54/153/39
f 55/160/40 56/159/40 54/158/40 53/157/40
f 54/164/41 49/163/41 50/162/41 53/161/41
f 55/168/42 52/167/42 51/166/42 56/165/42
o bone5
v 0.15608445915726266 1.6109375 -1.399705713874557
v 0.19038371441321886 1.6109375 -1.5084890535692768
v 0.15608445915726266 1.1696874999999998 -1.399705713874557
v 0.19038371441321886 1.1696874999999998 -1.5084890535692768
v 0.009773566865273371 1.6109375 -1.5654352143503985
v -0.02452568839068283 1.6109375 -1.4566518746556787
v 0.009773566865273371 1.1696874999999998 -1.5654352143503985
v -0.02452568839068283 1.1696874999999998 -1.4566518746556787
vt 0.484375 0.890625
vt 0.53125 0.890625
vt 0.53125 0.78125
vt 0.484375 0.78125
vt 0.46875 0.890625
vt 0.484375 0.890625
vt 0.484375 0.78125
vt 0.46875 0.78125
vt 0.546875 0.890625
vt 0.59375 0.890625
vt 0.59375 0.78125
vt 0.546875 0.78125
vt 0.53125 0.890625
vt 0.546875 0.890625
vt 0.546875 0.78125
vt 0.53125 0.78125
vt 0.53125 0.890625
vt 0.484375 0.890625
vt 0.484375 0.90625
vt 0.53125 0.90625
vt 0.578125 0.90625
vt 0.53125 0.90625
vt 0.53125 0.890625
vt 0.578125 0.890625
vn 0.30070579950427306 0 -0.9537169507482269
vn 0.9537169507482269 0 0.30070579950427306
vn -0.30070579950427306 0 0.9537169507482269
vn -0.9537169507482269 0 -0.30070579950427306
vn 0 1 0
vn 0 -1 0
usemtl m_0206a71a-6b3a-5ba3-dbee-fb72e67b808f
f 60/172/43 63/171/43 61/170/43 58/169/43
f 59/176/44 60/175/44 58/174/44 57/173/44
f 64/180/45 59/179/45 57/178/45 62/177/45
f 63/184/46 64/183/46 62/182/46 61/181/46
f 62/188/47 57/187/47 58/186/47 61/185/47
f 63/192/48 60/191/48 59/190/48 64/189/48
o bone5
v 0.10937499999999997 1.1734375 -1.42734375
v 0.10937499999999997 1.1734375 -1.53359375
v 0.10937499999999997 0.9196874999999998 -1.42734375
v 0.10937499999999997 0.9196874999999998 -1.53359375
v -0.158125 1.1734375 -1.53359375
v -0.158125 1.1734375 -1.42734375
v -0.158125 0.9196874999999998 -1.53359375
v -0.158125 0.9196874999999998 -1.42734375
vt 0.234375 0.953125
vt 0.296875 0.953125
vt 0.296875 0.890625
vt 0.234375 0.890625
vt 0.21875 0.953125
vt 0.234375 0.953125
vt 0.234375 0.890625
vt 0.21875 0.890625
vt 0.3125 0.953125
vt 0.375 0.953125
vt 0.375 0.890625
vt 0.3125 0.890625
vt 0.296875 0.953125
vt 0.3125 0.953125
vt 0.3125 0.890625
vt 0.296875 0.890625
vt 0.296875 0.953125
vt 0.234375 0.953125
vt 0.234375 0.96875
vt 0.296875 0.96875
vt 0.359375 0.96875
vt 0.296875 0.96875
vt 0.296875 0.953125
vt 0.359375 0.953125
vn 0 0 -1
vn 1 0 0
vn 0 0 1
vn -1 0 0
vn 0 1 0
vn 0 -1 0
usemtl m_0206a71a-6b3a-5ba3-dbee-fb72e67b808f
f 68/196/49 71/195/49 69/194/49 66/193/49
f 67/200/50 68/199/50 66/198/50 65/197/50
f 72/204/51 67/203/51 65/202/51 70/201/51
f 71/208/52 72/207/52 70/206/52 69/205/52
f 70/212/53 65/211/53 66/210/53 69/209/53
f 71/216/54 68/215/54 67/214/54 72/213/54
o cube
v 0.019355536798968974 1.2631774750852556 -1.5088844902594352
v -0.013006959501471314 1.2596963787146787 -1.5130330993652366
v 0.024343306079439055 1.2501136063595775 -1.5368312251585794
v -0.008019190221001234 1.2466325099890008 -1.540979834264381
v -0.012350374470240226 1.2455993362790592 -1.5063261689447611
v 0.020012121830200062 1.2490804326496359 -1.5021775598389595
v -0.007362605189770145 1.232535467553381 -1.5342729038439054
v 0.024999891110670136 1.2360165639239578 -1.5301242947381037
vt 0.515625 0.765625
vt 0.515625 0.765625
vt 0.515625 0.765625
vt 0.515625 0.765625
vt 0.515625 0.765625
vt 0.515625 0.765625
vt 0.515625 0.765625
vt 0.515625 0.765625
vt 0.515625 0.765625
vt 0.515625 0.765625
vt 0.515625 0.765625
vt 0.515625 0.765625
vt 0.515625 0.765625
vt 0.515625 0.765625
vt 0.515625 0.765625
vt 0.515625 0.765625
vt 0.515625 0.765625
vt 0.515625 0.765625
vt 0.515625 0.765625
vt 0.515625 0.765625
vt 0.515625 0.765625
vt 0.515625 0.765625
vt 0.515625 0.765625
vt 0.515625 0.765625
vn -0.9862856015372305 -0.10609055605567502 -0.12643380131966725
vn -0.042021441998789204 0.9022107158796588 -0.429243546910441
vn 0.9862856015372305 0.10609055605567502 0.12643380131966725
vn 0.042021441998789204 -0.9022107158796588 0.429243546910441
vn -0.1596086169750424 0.418043799221698 0.8942955167726175
vn 0.1596086169750424 -0.418043799221698 -0.8942955167726175
usemtl m_0206a71a-6b3a-5ba3-dbee-fb72e67b808f
f 76/220/55 79/219/55 77/218/55 74/217/55
f 75/224/56 76/223/56 74/222/56 73/221/56
f 80/228/57 75/227/57 73/226/57 78/225/57
f 79/232/58 80/231/58 78/230/58 77/229/58
f 78/236/59 73/235/59 74/234/59 77/233/59
f 79/240/60 76/239/60 75/238/60 80/237/60
o cube
v -0.04218750000000007 1.4414023904976405 -1.5006103367579406
v -0.07499999999999998 1.4414023904976405 -1.5006103367579406
v -0.042187500000000065 1.4213152776949363 -1.5245492256054087
v -0.07499999999999998 1.4213152776949363 -1.5245492256054087
v -0.07499999999999998 1.4294329460739066 -1.4905667803565885
v -0.04218750000000007 1.4294329460739066 -1.4905667803565885
v -0.07499999999999998 1.409345833271202 -1.5145056692040566
v -0.04218750000000007 1.409345833271202 -1.5145056692040566
vt 0.515625 0.765625
vt 0.515625 0.765625
vt 0.515625 0.765625
vt 0.515625 0.765625
vt 0.515625 0.765625
vt 0.515625 0.765625
vt 0.515625 0.765625
vt 0.515625 0.765625
vt 0.515625 0.765625
vt 0.515625 0.765625
vt 0.515625 0.765625
vt 0.515625 0.765625
vt 0.515625 0.765625
vt 0.515625 0.765625
vt 0.515625 0.765625
vt 0.515625 0.765625
vt 0.515625 0.765625
vt 0.515625 0.765625
vt 0.515625 0.765625
vt 0.515625 0.765625
vt 0.515625 0.765625
vt 0.515625 0.765625
vt 0.515625 0.765625
vt 0.515625 0.765625
vn -1 1.4809841295838907e-16 -3.416633080608561e-16
vn 3.416633080608561e-16 0.7660444431189781 -0.6427876096865393
vn 1 -1.4809841295838907e-16 3.416633080608561e-16
vn -3.416633080608561e-16 -0.7660444431189781 0.6427876096865393
vn -1.4809841295838907e-16 0.6427876096865393 0.7660444431189781
vn 1.4809841295838907e-16 -0.6427876096865393 -0.7660444431189781
usemtl m_0206a71a-6b3a-5ba3-dbee-fb72e67b808f
f 84/244/61 87/243/61 85/242/61 82/241/61
f 83/248/62 84/247/62 82/246/62 81/245/62
f 88/252/63 83/251/63 81/250/63 86/249/63
f 87/256/64 88/255/64 86/254/64 85/253/64
f 86/260/65 81/259/65 82/258/65 85/257/65
f 87/264/66 84/263/66 83/262/66 88/261/66
o cube
v 0.03124999999999994 1.4954760516698697 -1.5259216817629044
v -0.0015624999999999598 1.49547605166987 -1.5259216817629044
v 0.03124999999999996 1.4981996686307342 -1.5570527660782714
v -0.0015624999999999459 1.4981996686307342 -1.5570527660782714
v -0.0015624999999999736 1.4799105095121863 -1.5272834902433365
v 0.031249999999999934 1.4799105095121863 -1.5272834902433365
v -0.0015624999999999528 1.4826341264730507 -1.5584145745587035
v 0.031249999999999948 1.4826341264730507 -1.5584145745587035
vt 0.515625 0.765625
vt 0.515625 0.765625
vt 0.515625 0.765625
vt 0.515625 0.765625
vt 0.515625 0.765625
vt 0.515625 0.765625
vt 0.515625 0.765625
vt 0.515625 0.765625
vt 0.515625 0.765625
vt 0.515625 0.765625
vt 0.515625 0.765625
vt 0.515625 0.765625
vt 0.515625 0.765625
vt 0.515625 0.765625
vt 0.515625 0.765625
vt 0.515625 0.765625
vt 0.515625 0.765625
vt 0.515625 0.765625
vt 0.515625 0.765625
vt 0.515625 0.765625
vt 0.515625 0.765625
vt 0.515625 0.765625
vt 0.515625 0.765625
vt 0.515625 0.765625
vn -1 7.071420150456184e-16 -4.396418434778789e-16
vn 4.396418434778789e-16 0.9961946980917455 0.08715574274765817
vn 1 -7.071420150456184e-16 4.396418434778789e-16
vn -4.396418434778789e-16 -0.9961946980917455 -0.08715574274765817
vn -7.071420150456184e-16 -0.08715574274765833 0.9961946980917455
vn 7.071420150456184e-16 0.08715574274765833 -0.9961946980917455
usemtl m_0206a71a-6b3a-5ba3-dbee-fb72e67b808f
f 92/268/67 95/267/67 93/266/67 90/265/67
f 91/272/68 92/271/68 90/270/68 89/269/68
f 96/276/69 91/275/69 89/274/69 94/273/69
f 95/280/70 96/279/70 94/278/70 93/277/70
f 94/284/71 89/283/71 90/282/71 93/281/71
f 95/288/72 92/287/72 91/286/72 96/285/72
o cube
v -0.05312499572287344 1.1845807260787682 -1.5259677596383616
v -0.08593749572287328 1.1845807265541786 -1.5259677574487536
v -0.05312499573218444 1.2150899763012661 -1.5327314975739275
v -0.08593749573218427 1.2150899767766765 -1.5327314953843194
v -0.08593749678982718 1.1811988575863956 -1.5412223825600024
v -0.053124996789827336 1.1811988571109853 -1.5412223847496105
v -0.08593749679913817 1.2117081078088936 -1.5479861204955683
v -0.05312499679913833 1.211708107333483 -1.5479861226851763
vt 0.515625 0.765625
vt 0.515625 0.765625
vt 0.515625 0.765625
vt 0.515625 0.765625
vt 0.515625 0.765625
vt 0.515625 0.765625
vt 0.515625 0.765625
vt 0.515625 0.765625
vt 0.515625 0.765625
vt 0.515625 0.765625
vt 0.515625 0.765625
vt 0.515625 0.765625
vt 0.515625 0.765625
vt 0.515625 0.765625
vt 0.515625 0.765625
vt 0.515625 0.765625
vt 0.515625 0.765625
vt 0.515625 0.765625
vt 0.515625 0.765625
vt 0.515625 0.765625
vt 0.515625 0.765625
vt 0.515625 0.765625
vt 0.515625 0.765625
vt 0.515625 0.765625
vn -0.9999999999999978 1.4488700379551733e-8 6.67309093429778e-8
vn 6.828504918137406e-8 0.21643961393810826 0.9762960071199299
vn 0.9999999999999978 -1.4488700379551733e-8 -6.67309093429778e-8
vn -6.828504918137406e-8 -0.21643961393810826 -0.9762960071199299
vn 2.979519410266827e-10 -0.9762960071199321 0.2164396139381088
vn -2.979519410266827e-10 0.9762960071199321 -0.2164396139381088
usemtl m_0206a71a-6b3a-5ba3-dbee-fb72e67b808f
f 100/292/73 103/291/73 101/290/73 98/289/73
f 99/296/74 100/295/74 98/294/74 97/293/74
f 104/300/75 99/299/75 97/298/75 102/297/75
f 103/304/76 104/303/76 102/302/76 101/301/76
f 102/308/77 97/307/77 98/306/77 101/305/77
f 103/312/78 100/311/78 99/310/78 104/309/78
o cube
v -0.04218750000000007 1.4414023904976405 -1.5006103367579406
v -0.07499999999999998 1.4414023904976405 -1.5006103367579406
v -0.042187500000000065 1.4213152776949363 -1.5245492256054087
v -0.07499999999999998 1.4213152776949363 -1.5245492256054087
v -0.07499999999999998 1.4294329460739066 -1.4905667803565885
v -0.04218750000000007 1.4294329460739066 -1.4905667803565885
v -0.07499999999999998 1.409345833271202 -1.5145056692040566
v -0.04218750000000007 1.409345833271202 -1.5145056692040566
vt 0.515625 0.765625
vt 0.515625 0.765625
vt 0.515625 0.765625
vt 0.515625 0.765625
vt 0.515625 0.765625
vt 0.515625 0.765625
vt 0.515625 0.765625
vt 0.515625 0.765625
vt 0.515625 0.765625
vt 0.515625 0.765625
vt 0.515625 0.765625
vt 0.515625 0.765625
vt 0.515625 0.765625
vt 0.515625 0.765625
vt 0.515625 0.765625
vt 0.515625 0.765625
vt 0.515625 0.765625
vt 0.515625 0.765625
vt 0.515625 0.765625
vt 0.515625 0.765625
vt 0.515625 0.765625
vt 0.515625 0.765625
vt 0.515625 0.765625
vt 0.515625 0.765625
vn -1 1.4809841295838907e-16 -3.416633080608561e-16
vn 3.416633080608561e-16 0.7660444431189781 -0.6427876096865393
vn 1 -1.4809841295838907e-16 3.416633080608561e-16
vn -3.416633080608561e-16 -0.7660444431189781 0.6427876096865393
vn -1.4809841295838907e-16 0.6427876096865393 0.7660444431189781
vn 1.4809841295838907e-16 -0.6427876096865393 -0.7660444431189781
usemtl m_0206a71a-6b3a-5ba3-dbee-fb72e67b808f
f 108/316/79 111/315/79 109/314/79 106/313/79
f 107/320/80 108/319/80 106/318/80 105/317/80
f 112/324/81 107/323/81 105/322/81 110/321/81
f 111/328/82 112/327/82 110/326/82 109/325/82
f 110/332/83 105/331/83 106/330/83 109/329/83
f 111/336/84 108/335/84 107/334/84 112/333/84
o cube
v -0.04838157982718591 1.5395214763438796 -1.5391534630043313
v -0.08000070407309379 1.5451579261196495 -1.5324362037345802
v -0.056732779079631326 1.5201649227301568 -1.5622217053137277
v -0.08835190332553922 1.525801372505927 -1.5555044460439769
v -0.08000070407309373 1.5331884816959156 -1.522392647333228
v -0.048381579827185855 1.5275520319201454 -1.5291099066029792
v -0.08835190332553916 1.5138319280821928 -1.5454608896426245
v -0.05673277907963127 1.5081954783064229 -1.5521781489123756
vt 0.515625 0.765625
vt 0.515625 0.765625
vt 0.515625 0.765625
vt 0.515625 0.765625
vt 0.515625 0.765625
vt 0.515625 0.765625
vt 0.515625 0.765625
vt 0.515625 0.765625
vt 0.515625 0.765625
vt 0.515625 0.765625
vt 0.515625 0.765625
vt 0.515625 0.765625
vt 0.515625 0.765625
vt 0.515625 0.765625
vt 0.515625 0.765625
vt 0.515625 0.765625
vt 0.515625 0.765625
vt 0.515625 0.765625
vt 0.515625 0.765625
vt 0.515625 0.765625
vt 0.515625 0.765625
vt 0.515625 0.765625
vt 0.515625 0.765625
vt 0.515625 0.765625
vn -0.963630453208624 0.17177751697585028 0.20471647298288806
vn -3.552713678800501e-15 0.7660444431189786 -0.6427876096865387
vn 0.963630453208624 -0.17177751697585028 -0.20471647298288806
vn 3.552713678800501e-15 -0.7660444431189786 0.6427876096865387
vn 0.2672383760782535 0.6194097156391282 0.7381837539006886
vn -0.2672383760782535 -0.6194097156391282 -0.7381837539006886
usemtl m_0206a71a-6b3a-5ba3-dbee-fb72e67b808f
f 116/340/85 119/339/85 117/338/85 114/337/85
f 115/344/86 116/343/86 114/342/86 113/341/86
f 120/348/87 115/347/87 113/346/87 118/345/87
f 119/352/88 120/351/88 118/350/88 117/349/88
f 118/356/89 113/355/89 114/354/89 117/353/89
f 119/360/90 116/359/90 115/358/90 120/357/90
o cube
v 0.02031249999999992 1.3945273904976405 -1.5006103367579406
v -0.01249999999999999 1.3945273904976405 -1.5006103367579406
v 0.020312499999999928 1.3744402776949363 -1.5245492256054087
v -0.012499999999999983 1.3744402776949363 -1.5245492256054087
v -0.01249999999999999 1.3825579460739066 -1.4905667803565885
v 0.020312499999999917 1.3825579460739066 -1.4905667803565885
v -0.01249999999999999 1.362470833271202 -1.5145056692040566
v 0.02031249999999992 1.362470833271202 -1.5145056692040566
vt 0.515625 0.765625
vt 0.515625 0.765625
vt 0.515625 0.765625
vt 0.515625 0.765625
vt 0.515625 0.765625
vt 0.515625 0.765625
vt 0.515625 0.765625
vt 0.515625 0.765625
vt 0.515625 0.765625
vt 0.515625 0.765625
vt 0.515625 0.765625
vt 0.515625 0.765625
vt 0.515625 0.765625
vt 0.515625 0.765625
vt 0.515625 0.765625
vt 0.515625 0.765625
vt 0.515625 0.765625
vt 0.515625 0.765625
vt 0.515625 0.765625
vt 0.515625 0.765625
vt 0.515625 0.765625
vt 0.515625 0.765625
vt 0.515625 0.765625
vt 0.515625 0.765625
vn -1 1.4809841295838907e-16 -3.416633080608561e-16
vn 3.416633080608561e-16 0.7660444431189781 -0.6427876096865393
vn 1 -1.4809841295838907e-16 3.416633080608561e-16
vn -3.416633080608561e-16 -0.7660444431189781 0.6427876096865393
vn -1.4809841295838907e-16 0.6427876096865393 0.7660444431189781
vn 1.4809841295838907e-16 -0.6427876096865393 -0.7660444431189781
usemtl m_0206a71a-6b3a-5ba3-dbee-fb72e67b808f
f 124/364/91 127/363/91 125/362/91 122/361/91
f 123/368/92 124/367/92 122/366/92 121/365/92
f 128/372/93 123/371/93 121/370/93 126/369/93
f 127/376/94 128/375/94 126/374/94 125/373/94
f 126/380/95 121/379/95 122/378/95 125/377/95
f 127/384/96 124/383/96 123/382/96 128/381/96
o cube
v 0.019355536798968974 1.3194274750852535 -1.5198219902594345
v -0.013006959501471314 1.3159463787146766 -1.523970599365236
v 0.024343306079439055 1.3063636063595754 -1.5477687251585788
v -0.008019190221001234 1.3028825099889987 -1.5519173342643804
v -0.012350374470240226 1.301849336279057 -1.5172636689447605
v 0.020012121830200062 1.3053304326496338 -1.5131150598389589
v -0.007362605189770145 1.288785467553379 -1.5452104038439047
v 0.024999891110670136 1.2922665639239557 -1.5410617947381031
vt 0.53125 0.765625
vt 0.53125 0.765625
vt 0.53125 0.765625
vt 0.53125 0.765625
vt 0.53125 0.765625
vt 0.53125 0.765625
vt 0.53125 0.765625
vt 0.53125 0.765625
vt 0.53125 0.765625
vt 0.53125 0.765625
vt 0.53125 0.765625
vt 0.53125 0.765625
vt 0.53125 0.765625
vt 0.53125 0.765625
vt 0.53125 0.765625
vt 0.53125 0.765625
vt 0.53125 0.765625
vt 0.53125 0.765625
vt 0.53125 0.765625
vt 0.53125 0.765625
vt 0.53125 0.765625
vt 0.53125 0.765625
vt 0.53125 0.765625
vt 0.53125 0.765625
vn -0.9862856015372305 -0.10609055605567502 -0.12643380131966725
vn -0.042021441998789204 0.9022107158796588 -0.429243546910441
vn 0.9862856015372305 0.10609055605567502 0.12643380131966725
vn 0.042021441998789204 -0.9022107158796588 0.429243546910441
vn -0.1596086169750424 0.418043799221698 0.8942955167726175
vn 0.1596086169750424 -0.418043799221698 -0.8942955167726175
usemtl m_0206a71a-6b3a-5ba3-dbee-fb72e67b808f
f 132/388/97 135/387/97 133/386/97 130/385/97
f 131/392/98 132/391/98 130/390/98 129/389/98
f 136/396/99 131/395/99 129/394/99 134/393/99
f 135/400/100 136/399/100 134/398/100 133/397/100
f 134/404/101 129/403/101 130/402/101 133/401/101
f 135/408/102 132/407/102 131/406/102 136/405/102
o cube
v 0.03124999999999994 1.5720385516698687 -1.5149841817629048
v -0.0015624999999999598 1.572038551669869 -1.5149841817629048
v 0.03124999999999996 1.5747621686307332 -1.5461152660782718
v -0.0015624999999999459 1.5747621686307332 -1.5461152660782718
v -0.0015624999999999736 1.5564730095121853 -1.516345990243337
v 0.031249999999999934 1.5564730095121853 -1.516345990243337
v -0.0015624999999999528 1.5591966264730497 -1.5474770745587039
v 0.031249999999999948 1.5591966264730497 -1.5474770745587039
vt 0.515625 0.765625
vt 0.515625 0.765625
vt 0.515625 0.765625
vt 0.515625 0.765625
vt 0.515625 0.765625
vt 0.515625 0.765625
vt 0.515625 0.765625
vt 0.515625 0.765625
vt 0.515625 0.765625
vt 0.515625 0.765625
vt 0.515625 0.765625
vt 0.515625 0.765625
vt 0.515625 0.765625
vt 0.515625 0.765625
vt 0.515625 0.765625
vt 0.515625 0.765625
vt 0.515625 0.765625
vt 0.515625 0.765625
vt 0.515625 0.765625
vt 0.515625 0.765625
vt 0.515625 0.765625
vt 0.515625 0.765625
vt 0.515625 0.765625
vt 0.515625 0.765625
vn -1 7.071420150456184e-16 -4.396418434778789e-16
vn 4.396418434778789e-16 0.9961946980917455 0.08715574274765817
vn 1 -7.071420150456184e-16 4.396418434778789e-16
vn -4.396418434778789e-16 -0.9961946980917455 -0.08715574274765817
vn -7.071420150456184e-16 -0.08715574274765833 0.9961946980917455
vn 7.071420150456184e-16 0.08715574274765833 -0.9961946980917455
usemtl m_0206a71a-6b3a-5ba3-dbee-fb72e67b808f
f 140/412/103 143/411/103 141/410/103 138/409/103
f 139/416/104 140/415/104 138/414/104 137/413/104
f 144/420/105 139/419/105 137/418/105 142/417/105
f 143/424/106 144/423/106 142/422/106 141/421/106
f 142/428/107 137/427/107 138/426/107 141/425/107
f 143/432/108 140/431/108 139/430/108 144/429/108
o cube
v -0.05734409877706033 1.5797886815971403 -1.566412926821597
v -0.08896322302296816 1.5854251313729104 -1.5596956675518459
v -0.06432809109660667 1.5504755331077624 -1.5746909505543614
v -0.09594721534251452 1.5561119828835326 -1.56797369128461
v -0.08667377001872426 1.580721784354774 -1.5449722998403355
v -0.05505464577281642 1.575085334579004 -1.5516895591100865
v -0.09365776233827061 1.5514086358653965 -1.5532503235730997
v -0.06203863809236277 1.5457721860896263 -1.559967582842851
vt 0.515625 0.765625
vt 0.515625 0.765625
vt 0.515625 0.765625
vt 0.515625 0.765625
vt 0.515625 0.765625
vt 0.515625 0.765625
vt 0.515625 0.765625
vt 0.515625 0.765625
vt 0.515625 0.765625
vt 0.515625 0.765625
vt 0.515625 0.765625
vt 0.515625 0.765625
vt 0.515625 0.765625
vt 0.515625 0.765625
vt 0.515625 0.765625
vt 0.515625 0.765625
vt 0.515625 0.765625
vt 0.515625 0.765625
vt 0.515625 0.765625
vt 0.515625 0.765625
vt 0.515625 0.765625
vt 0.515625 0.765625
vt 0.515625 0.765625
vt 0.515625 0.765625
vn -0.9636304532086223 0.17177751697585297 0.20471647298289386
vn -0.14652499227161012 0.30101420916072197 -0.9422955335366658
vn 0.9636304532086223 -0.17177751697585297 -0.20471647298289386
vn 0.14652499227161012 -0.30101420916072197 0.9422955335366658
vn 0.22348775422548314 0.9380207516600876 0.2648967594484583
vn -0.22348775422548314 -0.9380207516600876 -0.2648967594484583
usemtl m_0206a71a-6b3a-5ba3-dbee-fb72e67b808f
f 148/436/109 151/435/109 149/434/109 146/433/109
f 147/440/110 148/439/110 146/438/110 145/437/110
f 152/444/111 147/443/111 145/442/111 150/441/111
f 151/448/112 152/447/112 150/446/112 149/445/112
f 150/452/113 145/451/113 146/450/113 149/449/113
f 151/456/114 148/455/114 147/454/114 152/453/114
o cube
v -0.05267145285101641 1.3546829948616155 -1.5249670867172158
v -0.08528892644772924 1.3521133750511614 -1.5224856301998737
v -0.05607354270063525 1.3770287540394677 -1.546546135153617
v -0.08869101629734807 1.3744591342290136 -1.544064678636275
v -0.08528892765754123 1.3412593380127396 -1.5337253145801653
v -0.0526714540608284 1.3438289578231937 -1.5362067710975071
v -0.08869101750716006 1.363605097190592 -1.5553043630165666
v -0.056073543910447235 1.3661747170010459 -1.5577858195339085
vt 0.515625 0.765625
vt 0.515625 0.765625
vt 0.515625 0.765625
vt 0.515625 0.765625
vt 0.515625 0.765625
vt 0.515625 0.765625
vt 0.515625 0.765625
vt 0.515625 0.765625
vt 0.515625 0.765625
vt 0.515625 0.765625
vt 0.515625 0.765625
vt 0.515625 0.765625
vt 0.515625 0.765625
vt 0.515625 0.765625
vt 0.515625 0.765625
vt 0.515625 0.765625
vt 0.515625 0.765625
vt 0.515625 0.765625
vt 0.515625 0.765625
vt 0.515625 0.765625
vt 0.515625 0.765625
vt 0.515625 0.765625
vt 0.515625 0.765625
vt 0.515625 0.765625
vn -0.9940563381855365 -0.07831222279478763 0.07562534148089611
vn 7.742796751669665e-8 0.694658370458992 0.7193398003386522
vn 0.9940563381855365 0.07831222279478763 -0.07562534148089611
vn -7.742796751669665e-8 -0.694658370458992 -0.7193398003386522
vn 0.10886687518780286 -0.7150642936912718 0.6905295499648413
vn -0.10886687518780286 0.7150642936912718 -0.6905295499648413
usemtl m_0206a71a-6b3a-5ba3-dbee-fb72e67b808f
f 156/460/115 159/459/115 157/458/115 154/457/115
f 155/464/116 156/463/116 154/462/116 153/461/116
f 160/468/117 155/467/117 153/466/117 158/465/117
f 159/472/118 160/471/118 158/470/118 157/469/118
f 158/476/119 153/475/119 154/474/119 157/473/119
f 159/480/120 156/479/120 155/478/120 160/477/120
o bone3
v -0.34194671683651656 1.6348750733215383 -1.524015625
v -0.34194671683651656 1.6348750733215383 -1.35275
v -0.4032662295751514 1.287114835539102 -1.524015625
v -0.4032662295751514 1.287114835539102 -1.35275
v -0.09051298739558719 1.5905405229609502 -1.35275
v -0.09051298739558722 1.5905405229609502 -1.524015625
v -0.15183250013422203 1.242780285178514 -1.35275
v -0.15183250013422203 1.242780285178514 -1.524015625
vt 0.03125 0.640625
vt 0.09375 0.640625
vt 0.09375 0.5625
vt 0.03125 0.5625
vt 0 0.640625
vt 0.03125 0.640625
vt 0.03125 0.5625
vt 0 0.5625
vt 0.125 0.640625
vt 0.1875 0.640625
vt 0.1875 0.5625
vt 0.125 0.5625
vt 0.09375 0.640625
vt 0.125 0.640625
vt 0.125 0.5625
vt 0.09375 0.5625
vt 0.09375 0.640625
vt 0.03125 0.640625
vt 0.03125 0.671875
vt 0.09375 0.671875
vt 0.15625 0.671875
vt 0.09375 0.671875
vt 0.09375 0.640625
vt 0.15625 0.640625
vn 1.2246467991473532e-16 0 1
vn -0.984807753012208 0.17364817766693033 1.2060416625018976e-16
vn -1.2246467991473532e-16 0 -1
vn 0.984807753012208 -0.17364817766693033 -1.2060416625018976e-16
vn 0.17364817766693033 0.984807753012208 -2.1265768495757713e-17
vn -0.17364817766693033 -0.984807753012208 2.1265768495757713e-17
usemtl m_0206a71a-6b3a-5ba3-dbee-fb72e67b808f
f 164/484/121 167/483/121 165/482/121 162/481/121
f 163/488/122 164/487/122 162/486/122 161/485/122
f 168/492/123 163/491/123 161/490/123 166/489/123
f 167/496/124 168/495/124 166/494/124 165/493/124
f 166/500/125 161/499/125 162/498/125 165/497/125
f 167/504/126 164/503/126 163/502/126 168/501/126
o bone4
v 0.29723362361068734 1.6358263470412984 -1.3587100547063848
v 0.2983035114423674 1.6348277826997537 -1.499952472942846
v 0.39525146385036597 1.0794131589883276 -1.3540338216627874
v 0.396321351682046 1.0784145946467827 -1.4952762398992485
v 0.15919941632939305 1.610315782999579 -1.5008328668883073
v 0.15812952849771297 1.6113143473411236 -1.3595904486518462
v 0.2572172565690717 1.0539025949466079 -1.4961566338447099
v 0.25614736873739163 1.0549011592881528 -1.3549142156082488
vt 0.375 0.796875
vt 0.40625 0.796875
vt 0.40625 0.65625
vt 0.375 0.65625
vt 0.34375 0.796875
vt 0.375 0.796875
vt 0.375 0.65625
vt 0.34375 0.65625
vt 0.4375 0.796875
vt 0.46875 0.796875
vt 0.46875 0.65625
vt 0.4375 0.65625
vt 0.40625 0.796875
vt 0.4375 0.796875
vt 0.4375 0.65625
vt 0.40625 0.65625
vt 0.40625 0.796875
vt 0.375 0.796875
vt 0.375 0.828125
vt 0.40625 0.828125
vt 0.4375 0.828125
vt 0.40625 0.828125
vt 0.40625 0.796875
vt 0.4375 0.796875
vn 0.007574427126938522 -0.007069482064033829 -0.9999463237979553
vn 0.9848077530122081 0.17353628106318453 0.006232877489991198
vn -0.007574427126938522 0.007069482064033829 0.9999463237979553
vn -0.9848077530122081 -0.17353628106318453 -0.006232877489991198
vn -0.17348290307907724 0.9848021027486213 -0.008276518661234276
vn 0.17348290307907724 -0.9848021027486213 0.008276518661234276
usemtl m_0206a71a-6b3a-5ba3-dbee-fb72e67b808f
f 172/508/127 175/507/127 173/506/127 170/505/127
f 171/512/128 172/511/128 170/510/128 169/509/128
f 176/516/129 171/515/129 169/514/129 174/513/129
f 175/520/130 176/519/130 174/518/130 173/517/130
f 174/524/131 169/523/131 170/522/131 173/521/131
f 175/528/132 172/527/132 171/526/132 176/525/132
o bone4
v 0.2755405971238308 1.631457410057579 -1.3433497605122973
v 0.2755405971238308 1.6371611450575723 -1.5021536134130138
v 0.33686010986246556 1.2839212644023887 -1.3558321659547872
v 0.33686010986246556 1.2896249994023818 -1.5146360188555037
v 0.00871924654208571 1.5901436589070157 -1.5038423336579583
v 0.00871924654208571 1.5844399239070224 -1.3450384807572418
v 0.07003875928072045 1.2426075132518255 -1.5163247391004482
v 0.07003875928072045 1.2369037782518322 -1.3575208861997317
vt 0.375 0.625
vt 0.4375 0.625
vt 0.4375 0.546875
vt 0.375 0.546875
vt 0.34375 0.625
vt 0.375 0.625
vt 0.375 0.546875
vt 0.34375 0.546875
vt 0.46875 0.625
vt 0.53125 0.625
vt 0.53125 0.546875
vt 0.46875 0.546875
vt 0.4375 0.625
vt 0.46875 0.625
vt 0.46875 0.546875
vt 0.4375 0.546875
vt 0.4375 0.625
vt 0.375 0.625
vt 0.375 0.65625
vt 0.4375 0.65625
vt 0.5 0.65625
vt 0.4375 0.65625
vt 0.4375 0.625
vt 0.5 0.625
vn 8.673617379884035e-19 0.03589371091441168 -0.9993556131411844
vn 0.9848077530122082 0.1735362810631845 0.006232877489991199
vn -8.673617379884035e-19 -0.03589371091441168 0.9993556131411844
vn -0.9848077530122082 -0.1735362810631845 -0.006232877489991199
vn -0.17364817766693033 0.9841731558377075 0.035348404792891544
vn 0.17364817766693033 -0.9841731558377075 -0.035348404792891544
usemtl m_0206a71a-6b3a-5ba3-dbee-fb72e67b808f
f 180/532/133 183/531/133 181/530/133 178/529/133
f 179/536/134 180/535/134 178/534/134 177/533/134
f 184/540/135 179/539/135 177/538/135 182/537/135
f 183/544/136 184/543/136 182/542/136 181/541/136
f 182/548/137 177/547/137 178/546/137 181/545/137
f 183/552/138 180/551/138 179/550/138 184/549/138
o bone4
v 0.399375 1.081157551440981 -1.357638028740397
v 0.399375 1.1046091078724343 -1.4969276083971048
v 0.399375 0.5936440226425039 -1.4397184762504835
v 0.399375 0.6170955790739572 -1.5790080559071913
v 0.258125 1.1046091078724343 -1.4969276083971048
v 0.258125 1.081157551440981 -1.357638028740397
v 0.258125 0.6170955790739572 -1.5790080559071913
v 0.258125 0.5936440226425039 -1.4397184762504835
vt 0.34375 0.515625
vt 0.375 0.515625
vt 0.375 0.40625
vt 0.34375 0.40625
vt 0.3125 0.515625
vt 0.34375 0.515625
vt 0.34375 0.40625
vt 0.3125 0.40625
vt 0.40625 0.515625
vt 0.4375 0.515625
vt 0.4375 0.40625
vt 0.40625 0.40625
vt 0.375 0.515625
vt 0.40625 0.515625
vt 0.40625 0.40625
vt 0.375 0.40625
vt 0.375 0.515625
vt 0.34375 0.515625
vt 0.34375 0.546875
vt 0.375 0.546875
vt 0.40625 0.546875
vt 0.375 0.546875
vt 0.375 0.515625
vt 0.40625 0.515625
vn 0 0.16602871809878425 -0.9861209179235954
vn 1 0 0
vn 0 -0.16602871809878425 0.9861209179235954
vn -1 0 0
vn 0 0.9861209179235954 0.16602871809878425
vn 0 -0.9861209179235954 -0.16602871809878425
usemtl m_0206a71a-6b3a-5ba3-dbee-fb72e67b808f
f 188/556/139 191/555/139 189/554/139 186/553/139
f 187/560/140 188/559/140 186/558/140 185/557/140
f 192/564/141 187/563/141 185/562/141 190/561/141
f 191/568/142 192/567/142 190/566/142 189/565/142
f 190/572/143 185/571/143 186/570/143 189/569/143
f 191/576/144 188/575/144 187/574/144 192/573/144
o bone6
v 0.04580465436677997 1.714951853143441 -1.3675362328391942
v 0.04556539737988389 1.7128775083416585 -1.508770797835648
v 0.04802911180250656 1.5737345452392886 -1.3654659098159565
v 0.047789854815610475 1.5716602004375062 -1.5067004748124102
v -0.09566688308464327 1.7106568008086354 -1.5084989286724244
v -0.09542762609774719 1.7127311456104177 -1.3672643636759707
v -0.0934424256489167 1.569439492904483 -1.506428605649187
v -0.09320316866202061 1.5715138377062654 -1.3651940406527332
vt 0.5 0.6875
vt 0.53125 0.6875
vt 0.53125 0.65625
vt 0.5 0.65625
vt 0.46875 0.6875
vt 0.5 0.6875
vt 0.5 0.65625
vt 0.46875 0.65625
vt 0.5625 0.6875
vt 0.59375 0.6875
vt 0.59375 0.65625
vt 0.5625 0.65625
vt 0.53125 0.6875
vt 0.5625 0.6875
vt 0.5625 0.65625
vt 0.53125 0.65625
vt 0.53125 0.6875
vt 0.5 0.6875
vt 0.5 0.71875
vt 0.53125 0.71875
vt 0.5625 0.71875
vt 0.53125 0.71875
vt 0.53125 0.6875
vt 0.5625 0.6875
vn -0.0016938547744855367 -0.014685626915272865 -0.9998907256386113
vn 0.9998745519612543 0.01572182324264225 -0.0019247374387499276
vn 0.0016938547744855367 0.014685626915272865 0.9998907256386113
vn -0.9998745519612543 -0.01572182324264225 0.0019247374387499276
vn -0.015748371226382882 0.99976855153382 -0.014657154146815423
vn 0.015748371226382882 -0.99976855153382 0.014657154146815423
usemtl m_0206a71a-6b3a-5ba3-dbee-fb72e67b808f
f 196/580/145 199/579/145 197/578/145 194/577/145
f 195/584/146 196/583/146 194/582/146 193/581/146
f 200/588/147 195/587/147 193/586/147 198/585/147
f 199/592/148 200/591/148 198/590/148 197/589/148
f 198/596/149 193/595/149 194/594/149 197/593/149
f 199/600/150 196/599/150 195/598/150 200/597/150
o head
v -0.027520532650459492 1.930317093673079 -1.3311958331200393
v -0.027893180700846315 1.9270862557517188 -1.551171792760534
v -0.026024437383953117 1.8353390812773662 -1.329803403476092
v -0.02639708543433994 1.832108243356006 -1.5497793631165866
v -0.15412734288595467 1.9251013755673352 -1.5509287946588919
v -0.15375469483556786 1.9283322134886953 -1.3309528350183972
v -0.1526312476194483 1.8301233631716225 -1.5495363650149443
v -0.1522585995690615 1.8333542010929826 -1.3295604053744496
vt 0.515625 0.734375
vt 0.546875 0.734375
vt 0.546875 0.71875
vt 0.515625 0.71875
vt 0.46875 0.734375
vt 0.515625 0.734375
vt 0.515625 0.71875
vt 0.46875 0.71875
vt 0.59375 0.734375
vt 0.625 0.734375
vt 0.625 0.71875
vt 0.59375 0.71875
vt 0.546875 0.734375
vt 0.59375 0.734375
vt 0.59375 0.71875
vt 0.546875 0.71875
vt 0.546875 0.734375
vt 0.515625 0.734375
vt 0.515625 0.78125
vt 0.546875 0.78125
vt 0.578125 0.78125
vt 0.546875 0.78125
vt 0.546875 0.734375
vt 0.578125 0.734375
vn -0.0016938547744855367 -0.014685626915272865 -0.9998907256386113
vn 0.9998745519612543 0.01572182324264225 -0.0019247374387499276
vn 0.0016938547744855367 0.014685626915272865 0.9998907256386113
vn -0.9998745519612543 -0.01572182324264225 0.0019247374387499276
vn -0.015748371226382882 0.99976855153382 -0.014657154146815423
vn 0.015748371226382882 -0.99976855153382 0.014657154146815423
usemtl m_0206a71a-6b3a-5ba3-dbee-fb72e67b808f
f 204/604/151 207/603/151 205/602/151 202/601/151
f 203/608/152 204/607/152 202/606/152 201/605/152
f 208/612/153 203/611/153 201/610/153 206/609/153
f 207/616/154 208/615/154 206/614/154 205/613/154
f 206/620/155 201/619/155 202/618/155 205/617/155
f 207/624/156 204/623/156 203/622/156 208/621/156
o head
v 0.11264762257997009 1.9642296681431097 -1.3006779502132448
v 0.11216910860617792 1.9600809785395452 -1.5831470802061527
v 0.11463585444730093 1.8380088885119652 -1.2988274845022094
v 0.11415734047350876 1.8338601989084007 -1.5812966144951173
v -0.060934173202114236 1.9573591378906627 -1.5828138600370691
v -0.060455659228322065 1.9615078274942273 -1.3003447300441613
v -0.0589459413347834 1.8311383582595182 -1.5809633943260337
v -0.058467427360991225 1.8352870478630827 -1.2984942643331259
vt 0.4375 0.9375
vt 0.46875 0.9375
vt 0.46875 0.90625
vt 0.4375 0.90625
vt 0.375 0.9375
vt 0.4375 0.9375
vt 0.4375 0.90625
vt 0.375 0.90625
vt 0.53125 0.9375
vt 0.5625 0.9375
vt 0.5625 0.90625
vt 0.53125 0.90625
vt 0.46875 0.9375
vt 0.53125 0.9375
vt 0.53125 0.90625
vt 0.46875 0.90625
vt 0.46875 0.9375
vt 0.4375 0.9375
vt 0.4375 1
vt 0.46875 1
vt 0.5 1
vt 0.46875 1
vt 0.46875 0.9375
vt 0.5 0.9375
vn -0.0016938547744855367 -0.014685626915272865 -0.9998907256386113
vn 0.9998745519612543 0.01572182324264225 -0.0019247374387499276
vn 0.0016938547744855367 0.014685626915272865 0.9998907256386113
vn -0.9998745519612543 -0.01572182324264225 0.0019247374387499276
vn -0.015748371226382882 0.99976855153382 -0.014657154146815423
vn 0.015748371226382882 -0.99976855153382 0.014657154146815423
usemtl m_0206a71a-6b3a-5ba3-dbee-fb72e67b808f
f 212/628/157 215/627/157 213/626/157 210/625/157
f 211/632/158 212/631/158 210/630/158 209/629/158
f 216/636/159 211/635/159 209/634/159 214/633/159
f 215/640/160 216/639/160 214/638/160 213/637/160
f 214/644/161 209/643/161 210/642/161 213/641/161
f 215/648/162 212/647/162 211/646/162 216/645/162
o cube
v -0.08515882790166196 1.9292168250261674 -1.4082779671845544
v -0.08521440751144976 1.92873495289301 -1.4410868816195712
v -0.0846666913008375 1.8979740577907356 -1.4078199311174664
v -0.08472227091062531 1.8974921856575782 -1.4406288455524832
v -0.10083744738584437 1.9284892994048437 -1.4410568075970906
v -0.10078186777605655 1.9289711715380011 -1.4082478931620739
v -0.1003453107850199 1.8972465321694119 -1.4405987715300028
v -0.1002897311752321 1.8977284043025693 -1.4077898570949858
vt 0.515625 0.765625
vt 0.515625 0.765625
vt 0.515625 0.765625
vt 0.515625 0.765625
vt 0.515625 0.765625
vt 0.515625 0.765625
vt 0.515625 0.765625
vt 0.515625 0.765625
vt 0.515625 0.765625
vt 0.515625 0.765625
vt 0.515625 0.765625
vt 0.515625 0.765625
vt 0.515625 0.765625
vt 0.515625 0.765625
vt 0.515625 0.765625
vt 0.515625 0.765625
vt 0.515625 0.765625
vt 0.515625 0.765625
vt 0.515625 0.765625
vt 0.515625 0.765625
vt 0.515625 0.765625
vt 0.515625 0.765625
vt 0.515625 0.765625
vt 0.515625 0.765625
vn -0.0016938547744855367 -0.014685626915272865 -0.9998907256386113
vn 0.9998745519612543 0.01572182324264225 -0.0019247374387499276
vn 0.0016938547744855367 0.014685626915272865 0.9998907256386113
vn -0.9998745519612543 -0.01572182324264225 0.0019247374387499276
vn -0.015748371226382882 0.99976855153382 -0.014657154146815423
vn 0.015748371226382882 -0.99976855153382 0.014657154146815423
usemtl m_0206a71a-6b3a-5ba3-dbee-fb72e67b808f
f 220/652/163 223/651/163 221/650/163 218/649/163
f 219/656/164 220/655/164 218/654/164 217/653/164
f 224/660/165 219/659/165 217/658/165 222/657/165
f 223/664/166 224/663/166 222/662/166 221/661/166
f 222/668/167 217/667/167 218/666/167 221/665/167
f 223/672/168 220/671/168 219/670/168 224/669/168
o cube
v -0.11648509409028027 1.9298057842784488 -1.4410496353779645
v -0.1492934778265088 1.9292899119532998 -1.4409864799307557
v -0.1159929574894558 1.898563017043017 -1.4405915993108767
v -0.14880134122568436 1.8980471447178677 -1.4405284438636676
v -0.1492670113456575 1.9295193748738508 -1.4253631873426522
v -0.11645862760942893 1.930035247199 -1.4254263427898612
v -0.14877487474483303 1.898276607638419 -1.4249051512755644
v -0.11596649100860447 1.8987924799635683 -1.4249683067227732
vt 0.515625 0.765625
vt 0.515625 0.765625
vt 0.515625 0.765625
vt 0.515625 0.765625
vt 0.515625 0.765625
vt 0.515625 0.765625
vt 0.515625 0.765625
vt 0.515625 0.765625
vt 0.515625 0.765625
vt 0.515625 0.765625
vt 0.515625 0.765625
vt 0.515625 0.765625
vt 0.515625 0.765625
vt 0.515625 0.765625
vt 0.515625 0.765625
vt 0.515625 0.765625
vt 0.515625 0.765625
vt 0.515625 0.765625
vt 0.515625 0.765625
vt 0.515625 0.765625
vt 0.515625 0.765625
vt 0.515625 0.765625
vt 0.515625 0.765625
vt 0.515625 0.765625
vn -0.9998745519612543 -0.015721823242642253 0.0019247374387497056
vn -0.0016938547744853147 -0.014685626915272861 -0.9998907256386113
vn 0.9998745519612543 0.015721823242642253 -0.0019247374387497056
vn 0.0016938547744853147 0.014685626915272861 0.9998907256386113
vn -0.015748371226382882 0.99976855153382 -0.014657154146815423
vn 0.015748371226382882 -0.99976855153382 0.014657154146815423
usemtl m_0206a71a-6b3a-5ba3-dbee-fb72e67b808f
f 228/676/169 231/675/169 229/674/169 226/673/169
f 227/680/170 228/679/170 226/678/170 225/677/170
f 232/684/171 227/683/171 225/682/171 230/681/171
f 231/688/172 232/687/172 230/686/172 229/685/172
f 230/692/173 225/691/173 226/690/173 229/689/173
f 231/696/174 228/695/174 227/694/174 232/693/174
o cube
v -0.04165330157829421 1.92960814349834 -1.5349337462144905
v -0.07446168531452277 1.929092271173191 -1.5348705907672815
v -0.041161164977469744 1.8983653762629082 -1.5344757101474027
v -0.0739695487136983 1.897849503937759 -1.5344125547001937
v -0.07443521883367143 1.929321734093742 -1.5192472981791783
v -0.041626835097442874 1.9298376064188913 -1.5193104536263873
v -0.07394308223284697 1.8980789668583102 -1.5187892621120904
v -0.04113469849661841 1.8985948391834595 -1.5188524175592992
vt 0.53125 0.78125
vt 0.53125 0.78125
vt 0.53125 0.78125
vt 0.53125 0.78125
vt 0.53125 0.78125
vt 0.53125 0.78125
vt 0.53125 0.78125
vt 0.53125 0.78125
vt 0.53125 0.78125
vt 0.53125 0.78125
vt 0.53125 0.78125
vt 0.53125 0.78125
vt 0.53125 0.78125
vt 0.53125 0.78125
vt 0.53125 0.78125
vt 0.53125 0.78125
vt 0.53125 0.78125
vt 0.53125 0.78125
vt 0.53125 0.78125
vt 0.53125 0.78125
vt 0.53125 0.78125
vt 0.53125 0.78125
vt 0.53125 0.78125
vt 0.53125 0.78125
vn -0.9998745519612543 -0.015721823242642253 0.0019247374387497056
vn -0.0016938547744853147 -0.014685626915272861 -0.9998907256386113
vn 0.9998745519612543 0.015721823242642253 -0.0019247374387497056
vn 0.0016938547744853147 0.014685626915272861 0.9998907256386113
vn -0.015748371226382882 0.99976855153382 -0.014657154146815423
vn 0.015748371226382882 -0.99976855153382 0.014657154146815423
usemtl m_0206a71a-6b3a-5ba3-dbee-fb72e67b808f
f 236/700/175 239/699/175 237/698/175 234/697/175
f 235/704/176 236/703/176 234/702/176 233/701/176
f 240/708/177 235/707/177 233/706/177 238/705/177
f 239/712/178 240/711/178 238/710/178 237/709/178
f 238/716/179 233/715/179 234/714/179 237/713/179
f 239/720/180 236/719/180 235/718/180 240/717/180
o cube
v -0.12257207750956982 1.9293385917082768 -1.3597735825074806
v -0.12262765711935764 1.9288567195751194 -1.3925824969424978
v -0.12207994090874535 1.898095824472845 -1.3593155464403925
v -0.12213552051853316 1.8976139523396875 -1.3921244608754098
v -0.13825069699375223 1.928611066086953 -1.3925524229200172
v -0.13819511738396442 1.9290929382201105 -1.359743508485
v -0.13775856039292778 1.8973682988515213 -1.3920943868529294
v -0.13770298078313994 1.8978501709846787 -1.359285472417912
vt 0.515625 0.765625
vt 0.515625 0.765625
vt 0.515625 0.765625
vt 0.515625 0.765625
vt 0.515625 0.765625
vt 0.515625 0.765625
vt 0.515625 0.765625
vt 0.515625 0.765625
vt 0.515625 0.765625
vt 0.515625 0.765625
vt 0.515625 0.765625
vt 0.515625 0.765625
vt 0.515625 0.765625
vt 0.515625 0.765625
vt 0.515625 0.765625
vt 0.515625 0.765625
vt 0.515625 0.765625
vt 0.515625 0.765625
vt 0.515625 0.765625
vt 0.515625 0.765625
vt 0.515625 0.765625
vt 0.515625 0.765625
vt 0.515625 0.765625
vt 0.515625 0.765625
vn -0.0016938547744855367 -0.014685626915272865 -0.9998907256386113
vn 0.9998745519612543 0.01572182324264225 -0.0019247374387499276
vn 0.0016938547744855367 0.014685626915272865 0.9998907256386113
vn -0.9998745519612543 -0.01572182324264225 0.0019247374387499276
vn -0.015748371226382882 0.99976855153382 -0.014657154146815423
vn 0.015748371226382882 -0.99976855153382 0.014657154146815423
usemtl m_0206a71a-6b3a-5ba3-dbee-fb72e67b808f
f 244/724/181 247/723/181 245/722/181 242/721/181
f 243/728/182 244/727/182 242/726/182 241/725/182
f 248/732/183 243/731/183 241/730/183 246/729/183
f 247/736/184 248/735/184 246/734/184 245/733/184
f 246/740/185 241/739/185 242/738/185 245/737/185
f 247/744/186 244/743/186 243/742/186 248/741/186
o cube
v -0.12385369108673555 1.901564467022477 -1.440622365906345
v -0.15666207482296413 1.901048594697328 -1.4405592104591363
v -0.12336155448591109 1.870321699787045 -1.4401643298392572
v -0.15616993822213965 1.8698058274618958 -1.4401011743920482
v -0.15663560834211276 1.901278057617879 -1.4249359178710328
v -0.12382722460588422 1.9017939299430282 -1.4249990733182418
v -0.15614347174128831 1.870035290382447 -1.424477881803945
v -0.12333508800505975 1.8705511627075964 -1.4245410372511538
vt 0.515625 0.765625
vt 0.515625 0.765625
vt 0.515625 0.765625
vt 0.515625 0.765625
vt 0.515625 0.765625
vt 0.515625 0.765625
vt 0.515625 0.765625
vt 0.515625 0.765625
vt 0.515625 0.765625
vt 0.515625 0.765625
vt 0.515625 0.765625
vt 0.515625 0.765625
vt 0.515625 0.765625
vt 0.515625 0.765625
vt 0.515625 0.765625
vt 0.515625 0.765625
vt 0.515625 0.765625
vt 0.515625 0.765625
vt 0.515625 0.765625
vt 0.515625 0.765625
vt 0.515625 0.765625
vt 0.515625 0.765625
vt 0.515625 0.765625
vt 0.515625 0.765625
vn -0.9998745519612543 -0.015721823242642253 0.0019247374387497056
vn -0.0016938547744853147 -0.014685626915272861 -0.9998907256386113
vn 0.9998745519612543 0.015721823242642253 -0.0019247374387497056
vn 0.0016938547744853147 0.014685626915272861 0.9998907256386113
vn -0.015748371226382882 0.99976855153382 -0.014657154146815423
vn 0.015748371226382882 -0.99976855153382 0.014657154146815423
usemtl m_0206a71a-6b3a-5ba3-dbee-fb72e67b808f
f 252/748/187 255/747/187 253/746/187 250/745/187
f 251/752/188 252/751/188 250/750/188 249/749/188
f 256/756/189 251/755/189 249/754/189 254/753/189
f 255/760/190 256/759/190 254/758/190 253/757/190
f 254/764/191 249/763/191 250/762/191 253/761/191
f 255/768/192 252/767/192 251/766/192 256/765/192
o cube
v -0.12175622544501796 1.8758068126310579 -1.373213052476154
v -0.15456460918124654 1.8752909403059086 -1.373149897028945
v -0.12155775405217259 1.866849616684597 -1.343274920438852
v -0.15436613778840114 1.8663337443594479 -1.343211764991643
v -0.154791330066107 1.8902583194872458 -1.3686703007209682
v -0.12198294632987847 1.890774191812395 -1.3687334561681772
v -0.15459285867326164 1.881301123540785 -1.3387321686836662
v -0.12178447493703308 1.8818169958659343 -1.3387953241308752
vt 0.515625 0.765625
vt 0.515625 0.765625
vt 0.515625 0.765625
vt 0.515625 0.765625
vt 0.515625 0.765625
vt 0.515625 0.765625
vt 0.515625 0.765625
vt 0.515625 0.765625
vt 0.515625 0.765625
vt 0.515625 0.765625
vt 0.515625 0.765625
vt 0.515625 0.765625
vt 0.515625 0.765625
vt 0.515625 0.765625
vt 0.515625 0.765625
vt 0.515625 0.765625
vt 0.515625 0.765625
vt 0.515625 0.765625
vt 0.515625 0.765625
vt 0.515625 0.765625
vt 0.515625 0.765625
vt 0.515625 0.765625
vt 0.515625 0.765625
vt 0.515625 0.765625
vn -0.9998745519612544 -0.015721823242642537 0.0019247374387497268
vn 0.014510136631071393 -0.9579122676055848 -0.2866941637105192
vn 0.9998745519612544 0.015721823242642537 -0.0019247374387497268
vn -0.014510136631071393 0.9579122676055848 0.2866941637105192
vn -0.0063510845710519435 0.2866302702867465 -0.9580202251936638
vn 0.0063510845710519435 -0.2866302702867465 0.9580202251936638
usemtl m_0206a71a-6b3a-5ba3-dbee-fb72e67b808f
f 260/772/193 263/771/193 261/770/193 258/769/193
f 259/776/194 260/775/194 258/774/194 257/773/194
f 264/780/195 259/779/195 257/778/195 262/777/195
f 263/784/196 264/783/196 262/782/196 261/781/196
f 262/788/197 257/787/197 258/786/197 261/785/197
f 263/792/198 260/791/198 259/790/198 264/789/198
o cube
v -0.12382519248586975 1.8920420325635254 -1.5035997898347693
v -0.15663357622209834 1.8915261602383762 -1.5035366343875602
v -0.12354940217775669 1.8716080113018891 -1.5272416428667324
v -0.15635778591398525 1.8710921389767399 -1.5271784874195236
v -0.15642806464197656 1.8797069820464078 -1.4933187374974495
v -0.12361968090574799 1.8802228543715571 -1.4933818929446585
v -0.1561522743338635 1.8592729607847716 -1.5169605905294128
v -0.12334389059763493 1.8597888331099208 -1.5170237459766216
vt 0.515625 0.765625
vt 0.515625 0.765625
vt 0.515625 0.765625
vt 0.515625 0.765625
vt 0.515625 0.765625
vt 0.515625 0.765625
vt 0.515625 0.765625
vt 0.515625 0.765625
vt 0.515625 0.765625
vt 0.515625 0.765625
vt 0.515625 0.765625
vt 0.515625 0.765625
vt 0.515625 0.765625
vt 0.515625 0.765625
vt 0.515625 0.765625
vt 0.515625 0.765625
vt 0.515625 0.765625
vt 0.515625 0.765625
vt 0.515625 0.765625
vt 0.515625 0.765625
vt 0.515625 0.765625
vt 0.515625 0.765625
vt 0.515625 0.765625
vt 0.515625 0.765625
vn -0.9998745519612543 -0.01572182324264211 0.0019247374387495854
vn -0.01315274112779276 0.756427404285976 -0.6539454009670883
vn 0.9998745519612543 0.01572182324264211 -0.0019247374387495854
vn 0.01315274112779276 -0.756427404285976 0.6539454009670883
vn -0.008825289859617877 0.6538886803723611 0.7565392970228222
vn 0.008825289859617877 -0.6538886803723611 -0.7565392970228222
usemtl m_0206a71a-6b3a-5ba3-dbee-fb72e67b808f
f 268/796/199 271/795/199 269/794/199 266/793/199
f 267/800/200 268/799/200 266/798/200 265/797/200
f 272/804/201 267/803/201 265/802/201 270/801/201
f 271/808/202 272/807/202 270/806/202 269/805/202
f 270/812/203 265/811/203 266/810/203 269/809/203
f 271/816/204 268/815/204 267/814/204 272/813/204
o head
v 0.11461616898326793 1.8392585992013821 -1.2988458059448929
v 0.11413765500947576 1.8351099095978176 -1.5813149359378007
v 0.11709653745142323 1.6817950523348058 -1.2965373041667694
v 0.11661802347763106 1.6776463627312412 -1.5790064341596772
v -0.16832690591957855 1.8306684945317713 -1.5807711976113539
v -0.16784839194578638 1.8348171841353358 -1.298302067618446
v -0.16584653745142325 1.673204947665195 -1.5784626958332304
v -0.16536802347763108 1.6773536372687594 -1.2959935658403225
vt 0.0625 0.796875
vt 0.125 0.796875
vt 0.125 0.765625
vt 0.0625 0.765625
vt 0 0.796875
vt 0.0625 0.796875
vt 0.0625 0.765625
vt 0 0.765625
vt 0.1875 0.796875
vt 0.25 0.796875
vt 0.25 0.765625
vt 0.1875 0.765625
vt 0.125 0.796875
vt 0.1875 0.796875
vt 0.1875 0.765625
vt 0.125 0.765625
vt 0.125 0.796875
vt 0.0625 0.796875
vt 0.0625 0.859375
vt 0.125 0.859375
vt 0.1875 0.859375
vt 0.125 0.859375
vt 0.125 0.796875
vt 0.1875 0.796875
vn -0.0016938547744855367 -0.014685626915272865 -0.9998907256386113
vn 0.9998745519612543 0.01572182324264225 -0.0019247374387499276
vn 0.0016938547744855367 0.014685626915272865 0.9998907256386113
vn -0.9998745519612543 -0.01572182324264225 0.0019247374387499276
vn -0.015748371226382882 0.99976855153382 -0.014657154146815423
vn 0.015748371226382882 -0.99976855153382 0.014657154146815423
usemtl m_0206a71a-6b3a-5ba3-dbee-fb72e67b808f
f 276/820/205 279/819/205 277/818/205 274/817/205
f 275/824/206 276/823/206 274/822/206 273/821/206
f 280/828/207 275/827/207 273/826/207 278/825/207
f 279/832/208 280/831/208 278/830/208 277/829/208
f 278/836/209 273/835/209 274/834/209 277/833/209
f 279/840/210 276/839/210 275/838/210 280/837/210
o cube
v 5.0766910182746425 0.12311992895423035 0.04896397461709656
v 5.069393056947621 0.11369658165194271 -0.07546648904068204
v 5.065804477168682 -0.000999832949448846 0.05900229757076877
v 5.0585065158416604 -0.01042318025173649 -0.06542816608700983
v 4.945082063937278 0.12511959485312804 -0.06904062052444097
v 4.9523800252643 0.1345429421554157 0.05538984313333763
v 4.934195522831318 0.000999832949448846 -0.05900229757076877
v 4.9414934841583396 0.01042318025173649 0.06542816608700983
vt 0.03125 0.96875
vt 0.0625 0.96875
vt 0.0625 0.9375
vt 0.03125 0.9375
vt 0 0.96875
vt 0.03125 0.96875
vt 0.03125 0.9375
vt 0 0.9375
vt 0.09375 0.96875
vt 0.125 0.96875
vt 0.125 0.9375
vt 0.09375 0.9375
vt 0.0625 0.96875
vt 0.09375 0.96875
vt 0.09375 0.9375
vt 0.0625 0.9375
vt 0.0625 0.96875
vt 0.03125 0.96875
vt 0.03125 1
vt 0.0625 1
vt 0.09375 1
vt 0.0625 1
vt 0.0625 0.96875
vt 0.09375 0.96875
vn -0.0583836906161759 -0.07538677841830115 -0.9954437092622288
vn 0.9944879440827434 -0.09138410560948271 -0.051406948129928506
vn 0.0583836906161759 0.07538677841830115 0.9954437092622288
vn -0.9944879440827434 0.09138410560948271 0.051406948129928506
vn 0.08709232884768267 0.9929580952294337 -0.08030658362937763
vn -0.08709232884768267 -0.9929580952294337 0.08030658362937763
usemtl m_0206a71a-6b3a-5ba3-dbee-fb72e67b808f
f 284/844/211 287/843/211 285/842/211 282/841/211
f 283/848/212 284/847/212 282/846/212 281/845/212
f 288/852/213 283/851/213 281/850/213 286/849/213
f 287/856/214 288/855/214 286/854/214 285/853/214
f 286/860/215 281/859/215 282/858/215 285/857/215
f 287/864/216 284/863/216 283/862/216 288/861/216